<?xml version="1.0" encoding="UTF-8" standalone="no"?>
<svg width="132" height="132" viewBox="0 0 132 132" fill="none" version="1.1" id="svg4"
  xmlns="http://www.w3.org/2000/svg" xmlns:svg="http://www.w3.org/2000/svg">
  <circle cx="66" cy="66" r="52.0201" fill="#ffffff" id="circle1" />
  <path fill-rule="evenodd" clip-rule="evenodd"
    d="M 1.808224,-1.9999999e-7 C 0.809564,-1.9999999e-7 4e-6,0.8095598 4e-6,1.8082098 V 130.192 c 0,0.998 0.80956,1.808 1.80821,1.808 H 130.192 c 0.998,0 1.808,-0.81 1.808,-1.808 V 1.8082198 C 132,0.8095668 131.19,-1.9999999e-7 130.192,-1.9999999e-7 Z M 66.002101,19.8867 c -25.4656,0 -46.109597,20.644 -46.109597,46.1096 0,25.465596 20.643997,46.1097 46.109597,46.1097 25.4657,0 46.109899,-20.644104 46.109899,-46.1097 0,-25.4656 -20.644199,-46.1096 -46.109899,-46.1096 z"
    fill="url(#paint0_linear_2655_267642)" id="path2" style="fill:url(#paint0_linear_2655_267642)" />
  <defs id="defs4">
    <linearGradient id="paint0_linear_2655_267642" x1="66" y1="0" x2="66" y2="132" gradientUnits="userSpaceOnUse"
      gradientTransform="translate(4e-6)">
      <stop stop-color="#C9DEFF" id="stop2" />
      <stop offset="0.546875" stop-color="#7A9FF1" id="stop3" />
      <stop offset="1" stop-color="#0023CE" id="stop4" />
    </linearGradient>
  </defs>
</svg>